<mxfile host="app.diagrams.net" modified="2023-11-15T06:54:10.478Z" agent="Mozilla/5.0 (Windows NT 10.0; Win64; x64) AppleWebKit/537.36 (KHTML, like Gecko) Chrome/119.0.0.0 Safari/537.36" etag="Q08a2nk1SuWN1S652aIE" version="22.1.1" type="google">
  <diagram name="Page-1" id="BZWavf0FPUKdXzyIZEEN">
    <mxGraphModel grid="1" page="1" gridSize="10" guides="1" tooltips="1" connect="1" arrows="1" fold="1" pageScale="1" pageWidth="850" pageHeight="1100" math="0" shadow="0">
      <root>
        <mxCell id="0" />
        <mxCell id="1" parent="0" />
        <mxCell id="xZR_K9U9QpyJ1qIMd4OT-1" value="Citizenship Status of Urdu-speaking Populations" style="ellipse;whiteSpace=wrap;html=1;" vertex="1" parent="1">
          <mxGeometry x="290" y="390" width="140" height="90" as="geometry" />
        </mxCell>
        <mxCell id="xZR_K9U9QpyJ1qIMd4OT-2" value="Challenges in Bangladesh" style="rounded=1;whiteSpace=wrap;html=1;" vertex="1" parent="1">
          <mxGeometry x="420" y="290" width="80" height="50" as="geometry" />
        </mxCell>
        <mxCell id="xZR_K9U9QpyJ1qIMd4OT-3" value="" style="endArrow=none;html=1;rounded=0;entryX=0;entryY=0.75;entryDx=0;entryDy=0;exitX=0.664;exitY=0.011;exitDx=0;exitDy=0;exitPerimeter=0;" edge="1" parent="1" source="xZR_K9U9QpyJ1qIMd4OT-1" target="xZR_K9U9QpyJ1qIMd4OT-2">
          <mxGeometry width="50" height="50" relative="1" as="geometry">
            <mxPoint x="340" y="420" as="sourcePoint" />
            <mxPoint x="390" y="370" as="targetPoint" />
            <Array as="points" />
          </mxGeometry>
        </mxCell>
        <mxCell id="xZR_K9U9QpyJ1qIMd4OT-4" value="Linguistic and Cultural Differences" style="rounded=1;whiteSpace=wrap;html=1;" vertex="1" parent="1">
          <mxGeometry x="520" y="250" width="110" height="40" as="geometry" />
        </mxCell>
        <mxCell id="xZR_K9U9QpyJ1qIMd4OT-5" value="Bias in Favor of Urdu Speakers before indipendence" style="rounded=1;whiteSpace=wrap;html=1;" vertex="1" parent="1">
          <mxGeometry x="530" y="320" width="120" height="60" as="geometry" />
        </mxCell>
        <mxCell id="xZR_K9U9QpyJ1qIMd4OT-6" value="Exclusion from Inclusion" style="rounded=1;whiteSpace=wrap;html=1;" vertex="1" parent="1">
          <mxGeometry x="665" y="265" width="90" height="40" as="geometry" />
        </mxCell>
        <mxCell id="xZR_K9U9QpyJ1qIMd4OT-8" value="" style="endArrow=none;html=1;rounded=0;exitX=1;exitY=0.75;exitDx=0;exitDy=0;" edge="1" parent="1" source="xZR_K9U9QpyJ1qIMd4OT-2" target="xZR_K9U9QpyJ1qIMd4OT-5">
          <mxGeometry width="50" height="50" relative="1" as="geometry">
            <mxPoint x="330" y="490" as="sourcePoint" />
            <mxPoint x="380" y="440" as="targetPoint" />
          </mxGeometry>
        </mxCell>
        <mxCell id="xZR_K9U9QpyJ1qIMd4OT-9" value="" style="endArrow=none;html=1;rounded=0;exitX=0;exitY=0.75;exitDx=0;exitDy=0;entryX=1;entryY=0;entryDx=0;entryDy=0;" edge="1" parent="1" source="xZR_K9U9QpyJ1qIMd4OT-4" target="xZR_K9U9QpyJ1qIMd4OT-2">
          <mxGeometry width="50" height="50" relative="1" as="geometry">
            <mxPoint x="510" y="338" as="sourcePoint" />
            <mxPoint x="534" y="350" as="targetPoint" />
          </mxGeometry>
        </mxCell>
        <mxCell id="xZR_K9U9QpyJ1qIMd4OT-10" value="" style="endArrow=none;html=1;rounded=0;exitX=1;exitY=0.75;exitDx=0;exitDy=0;entryX=0;entryY=0.25;entryDx=0;entryDy=0;" edge="1" parent="1" source="xZR_K9U9QpyJ1qIMd4OT-4" target="xZR_K9U9QpyJ1qIMd4OT-6">
          <mxGeometry width="50" height="50" relative="1" as="geometry">
            <mxPoint x="530" y="290" as="sourcePoint" />
            <mxPoint x="510" y="300" as="targetPoint" />
          </mxGeometry>
        </mxCell>
        <mxCell id="xZR_K9U9QpyJ1qIMd4OT-11" value="" style="endArrow=none;html=1;rounded=0;exitX=1;exitY=0.25;exitDx=0;exitDy=0;entryX=0;entryY=1;entryDx=0;entryDy=0;" edge="1" parent="1" source="xZR_K9U9QpyJ1qIMd4OT-5" target="xZR_K9U9QpyJ1qIMd4OT-6">
          <mxGeometry width="50" height="50" relative="1" as="geometry">
            <mxPoint x="650" y="280" as="sourcePoint" />
            <mxPoint x="670" y="300" as="targetPoint" />
          </mxGeometry>
        </mxCell>
        <mxCell id="xZR_K9U9QpyJ1qIMd4OT-13" style="edgeStyle=orthogonalEdgeStyle;rounded=0;orthogonalLoop=1;jettySize=auto;html=1;exitX=0.5;exitY=1;exitDx=0;exitDy=0;" edge="1" parent="1">
          <mxGeometry relative="1" as="geometry">
            <mxPoint x="530" y="440" as="sourcePoint" />
            <mxPoint x="530" y="440" as="targetPoint" />
          </mxGeometry>
        </mxCell>
        <mxCell id="xZR_K9U9QpyJ1qIMd4OT-18" value="Internal Conflicts within the Community" style="rounded=1;whiteSpace=wrap;html=1;" vertex="1" parent="1">
          <mxGeometry x="635" y="602.03" width="125" height="30" as="geometry" />
        </mxCell>
        <mxCell id="xZR_K9U9QpyJ1qIMd4OT-19" value="Ongoing Struggles" style="rounded=1;whiteSpace=wrap;html=1;" vertex="1" parent="1">
          <mxGeometry x="465" y="607.03" width="120" height="20" as="geometry" />
        </mxCell>
        <mxCell id="xZR_K9U9QpyJ1qIMd4OT-20" value="Structural Inequalities" style="rounded=1;whiteSpace=wrap;html=1;" vertex="1" parent="1">
          <mxGeometry x="655" y="537.03" width="120" height="30" as="geometry" />
        </mxCell>
        <mxCell id="xZR_K9U9QpyJ1qIMd4OT-21" value="&lt;div&gt;Granting of Citizenship&lt;/div&gt;&lt;div&gt;yet Challenges in Active Rights Exercise&lt;/div&gt;" style="rounded=1;whiteSpace=wrap;html=1;" vertex="1" parent="1">
          <mxGeometry x="495" y="537.03" width="135" height="50" as="geometry" />
        </mxCell>
        <mxCell id="xZR_K9U9QpyJ1qIMd4OT-22" value="Passive Citizenship" style="rounded=1;whiteSpace=wrap;html=1;" vertex="1" parent="1">
          <mxGeometry x="675" y="477.03" width="80" height="40" as="geometry" />
        </mxCell>
        <mxCell id="xZR_K9U9QpyJ1qIMd4OT-23" value="Limited Rights Exercise" style="rounded=1;whiteSpace=wrap;html=1;" vertex="1" parent="1">
          <mxGeometry x="535" y="477.03" width="90" height="40" as="geometry" />
        </mxCell>
        <mxCell id="xZR_K9U9QpyJ1qIMd4OT-24" value="Camps and Physical Borders reside" style="rounded=1;whiteSpace=wrap;html=1;" vertex="1" parent="1">
          <mxGeometry x="525" y="417.03" width="100" height="40" as="geometry" />
        </mxCell>
        <mxCell id="xZR_K9U9QpyJ1qIMd4OT-25" value="Stranded in Bangladesh" style="rounded=1;whiteSpace=wrap;html=1;" vertex="1" parent="1">
          <mxGeometry x="655" y="417.03" width="90" height="40" as="geometry" />
        </mxCell>
        <mxCell id="xZR_K9U9QpyJ1qIMd4OT-26" value="" style="endArrow=none;html=1;rounded=0;entryX=0;entryY=1;entryDx=0;entryDy=0;" edge="1" parent="1" target="xZR_K9U9QpyJ1qIMd4OT-22">
          <mxGeometry width="50" height="50" relative="1" as="geometry">
            <mxPoint x="565" y="537.03" as="sourcePoint" />
            <mxPoint x="585" y="507.03" as="targetPoint" />
          </mxGeometry>
        </mxCell>
        <mxCell id="xZR_K9U9QpyJ1qIMd4OT-27" value="" style="endArrow=none;html=1;rounded=0;exitX=0;exitY=0.5;exitDx=0;exitDy=0;entryX=1;entryY=0.5;entryDx=0;entryDy=0;" edge="1" parent="1" source="xZR_K9U9QpyJ1qIMd4OT-22" target="xZR_K9U9QpyJ1qIMd4OT-23">
          <mxGeometry width="50" height="50" relative="1" as="geometry">
            <mxPoint x="395" y="477.03" as="sourcePoint" />
            <mxPoint x="445" y="427.03" as="targetPoint" />
          </mxGeometry>
        </mxCell>
        <mxCell id="xZR_K9U9QpyJ1qIMd4OT-28" value="" style="endArrow=none;html=1;rounded=0;exitX=1;exitY=0.5;exitDx=0;exitDy=0;" edge="1" parent="1" source="xZR_K9U9QpyJ1qIMd4OT-24">
          <mxGeometry width="50" height="50" relative="1" as="geometry">
            <mxPoint x="605" y="487.03" as="sourcePoint" />
            <mxPoint x="655" y="437.03" as="targetPoint" />
          </mxGeometry>
        </mxCell>
        <mxCell id="xZR_K9U9QpyJ1qIMd4OT-29" value="" style="endArrow=none;html=1;rounded=0;exitX=0;exitY=1;exitDx=0;exitDy=0;entryX=0.615;entryY=0.033;entryDx=0;entryDy=0;entryPerimeter=0;" edge="1" parent="1" source="xZR_K9U9QpyJ1qIMd4OT-25" target="xZR_K9U9QpyJ1qIMd4OT-23">
          <mxGeometry width="50" height="50" relative="1" as="geometry">
            <mxPoint x="490" y="527.03" as="sourcePoint" />
            <mxPoint x="630" y="480" as="targetPoint" />
          </mxGeometry>
        </mxCell>
        <mxCell id="xZR_K9U9QpyJ1qIMd4OT-30" value="" style="endArrow=none;html=1;rounded=0;exitX=1.007;exitY=0.378;exitDx=0;exitDy=0;exitPerimeter=0;" edge="1" parent="1" source="xZR_K9U9QpyJ1qIMd4OT-1">
          <mxGeometry width="50" height="50" relative="1" as="geometry">
            <mxPoint x="483.03999999999996" y="404" as="sourcePoint" />
            <mxPoint x="525" y="427.03" as="targetPoint" />
          </mxGeometry>
        </mxCell>
        <mxCell id="xZR_K9U9QpyJ1qIMd4OT-33" value="" style="endArrow=none;html=1;rounded=0;entryX=0;entryY=0.25;entryDx=0;entryDy=0;" edge="1" parent="1" source="xZR_K9U9QpyJ1qIMd4OT-21" target="xZR_K9U9QpyJ1qIMd4OT-20">
          <mxGeometry width="50" height="50" relative="1" as="geometry">
            <mxPoint x="395" y="477.03" as="sourcePoint" />
            <mxPoint x="445" y="427.03" as="targetPoint" />
          </mxGeometry>
        </mxCell>
        <mxCell id="xZR_K9U9QpyJ1qIMd4OT-35" value="" style="endArrow=none;html=1;rounded=0;exitX=0;exitY=0.25;exitDx=0;exitDy=0;entryX=1;entryY=0.5;entryDx=0;entryDy=0;" edge="1" parent="1" source="xZR_K9U9QpyJ1qIMd4OT-23" target="xZR_K9U9QpyJ1qIMd4OT-1">
          <mxGeometry width="50" height="50" relative="1" as="geometry">
            <mxPoint x="395" y="477.03" as="sourcePoint" />
            <mxPoint x="459.1261003402342" y="426.96316276935204" as="targetPoint" />
          </mxGeometry>
        </mxCell>
        <mxCell id="xZR_K9U9QpyJ1qIMd4OT-36" value="" style="endArrow=none;html=1;rounded=0;exitX=0.104;exitY=-0.04;exitDx=0;exitDy=0;exitPerimeter=0;entryX=0.979;entryY=0.722;entryDx=0;entryDy=0;entryPerimeter=0;" edge="1" parent="1" source="xZR_K9U9QpyJ1qIMd4OT-21" target="xZR_K9U9QpyJ1qIMd4OT-1">
          <mxGeometry width="50" height="50" relative="1" as="geometry">
            <mxPoint x="385" y="487.03" as="sourcePoint" />
            <mxPoint x="435" y="437.03" as="targetPoint" />
          </mxGeometry>
        </mxCell>
        <mxCell id="xZR_K9U9QpyJ1qIMd4OT-37" value="" style="endArrow=none;html=1;rounded=0;exitX=0.058;exitY=-0.2;exitDx=0;exitDy=0;exitPerimeter=0;" edge="1" parent="1" source="xZR_K9U9QpyJ1qIMd4OT-19">
          <mxGeometry width="50" height="50" relative="1" as="geometry">
            <mxPoint x="355" y="487.03" as="sourcePoint" />
            <mxPoint x="410" y="470" as="targetPoint" />
          </mxGeometry>
        </mxCell>
        <mxCell id="xZR_K9U9QpyJ1qIMd4OT-38" value="" style="endArrow=none;html=1;rounded=0;exitX=1;exitY=0.5;exitDx=0;exitDy=0;entryX=0;entryY=0.5;entryDx=0;entryDy=0;" edge="1" parent="1" source="xZR_K9U9QpyJ1qIMd4OT-19" target="xZR_K9U9QpyJ1qIMd4OT-18">
          <mxGeometry width="50" height="50" relative="1" as="geometry">
            <mxPoint x="585" y="667.03" as="sourcePoint" />
            <mxPoint x="635" y="617.03" as="targetPoint" />
          </mxGeometry>
        </mxCell>
        <mxCell id="xZR_K9U9QpyJ1qIMd4OT-39" value="Misrecognize" style="rounded=1;whiteSpace=wrap;html=1;" vertex="1" parent="1">
          <mxGeometry x="700" y="662.03" width="120" height="30" as="geometry" />
        </mxCell>
        <mxCell id="xZR_K9U9QpyJ1qIMd4OT-43" value="" style="endArrow=none;html=1;rounded=0;exitX=0.5;exitY=0;exitDx=0;exitDy=0;entryX=0.656;entryY=0.933;entryDx=0;entryDy=0;entryPerimeter=0;" edge="1" parent="1" source="xZR_K9U9QpyJ1qIMd4OT-39" target="xZR_K9U9QpyJ1qIMd4OT-18">
          <mxGeometry width="50" height="50" relative="1" as="geometry">
            <mxPoint x="645" y="687.03" as="sourcePoint" />
            <mxPoint x="695" y="637.03" as="targetPoint" />
          </mxGeometry>
        </mxCell>
        <mxCell id="xZR_K9U9QpyJ1qIMd4OT-44" value="No constituent Power" style="rounded=1;whiteSpace=wrap;html=1;" vertex="1" parent="1">
          <mxGeometry x="370" y="680" width="120" height="35" as="geometry" />
        </mxCell>
        <mxCell id="xZR_K9U9QpyJ1qIMd4OT-45" value="" style="endArrow=none;html=1;rounded=0;exitX=1;exitY=0.5;exitDx=0;exitDy=0;" edge="1" parent="1" source="xZR_K9U9QpyJ1qIMd4OT-44">
          <mxGeometry width="50" height="50" relative="1" as="geometry">
            <mxPoint x="585" y="727.03" as="sourcePoint" />
            <mxPoint x="540" y="698" as="targetPoint" />
          </mxGeometry>
        </mxCell>
        <mxCell id="xZR_K9U9QpyJ1qIMd4OT-46" value="Legal recognition" style="rounded=1;whiteSpace=wrap;html=1;" vertex="1" parent="1">
          <mxGeometry x="140" y="270" width="120" height="30" as="geometry" />
        </mxCell>
        <mxCell id="xZR_K9U9QpyJ1qIMd4OT-47" value="Education access" style="rounded=1;whiteSpace=wrap;html=1;" vertex="1" parent="1">
          <mxGeometry x="140" y="320" width="120" height="30" as="geometry" />
        </mxCell>
        <mxCell id="xZR_K9U9QpyJ1qIMd4OT-48" value="Employement oppertunities" style="rounded=1;whiteSpace=wrap;html=1;" vertex="1" parent="1">
          <mxGeometry x="130" y="370" width="120" height="30" as="geometry" />
        </mxCell>
        <mxCell id="xZR_K9U9QpyJ1qIMd4OT-49" value="Government recognition for their better life" style="rounded=1;whiteSpace=wrap;html=1;" vertex="1" parent="1">
          <mxGeometry x="130" y="430" width="140" height="40" as="geometry" />
        </mxCell>
        <mxCell id="xZR_K9U9QpyJ1qIMd4OT-51" value="Deny Pakistani citizenship" style="rounded=1;whiteSpace=wrap;html=1;" vertex="1" parent="1">
          <mxGeometry x="420" y="180" width="100" height="40" as="geometry" />
        </mxCell>
        <mxCell id="xZR_K9U9QpyJ1qIMd4OT-52" value="Not born on Pakistani soil, hence nethir bangladesh nor pakistan bound to take them as citizens" style="rounded=1;whiteSpace=wrap;html=1;" vertex="1" parent="1">
          <mxGeometry x="570" y="110" width="190" height="60" as="geometry" />
        </mxCell>
        <mxCell id="xZR_K9U9QpyJ1qIMd4OT-53" value="" style="endArrow=none;html=1;rounded=0;exitX=0.633;exitY=-0.009;exitDx=0;exitDy=0;exitPerimeter=0;" edge="1" parent="1" source="xZR_K9U9QpyJ1qIMd4OT-1">
          <mxGeometry width="50" height="50" relative="1" as="geometry">
            <mxPoint x="380" y="270" as="sourcePoint" />
            <mxPoint x="430" y="220" as="targetPoint" />
          </mxGeometry>
        </mxCell>
        <mxCell id="xZR_K9U9QpyJ1qIMd4OT-54" value="" style="endArrow=none;html=1;rounded=0;" edge="1" parent="1">
          <mxGeometry width="50" height="50" relative="1" as="geometry">
            <mxPoint x="520" y="200" as="sourcePoint" />
            <mxPoint x="570" y="150" as="targetPoint" />
          </mxGeometry>
        </mxCell>
        <mxCell id="xZR_K9U9QpyJ1qIMd4OT-55" value="Not any citizen untill 2008" style="rounded=1;whiteSpace=wrap;html=1;" vertex="1" parent="1">
          <mxGeometry x="660" y="210" width="120" height="30" as="geometry" />
        </mxCell>
        <mxCell id="xZR_K9U9QpyJ1qIMd4OT-56" value="" style="endArrow=none;html=1;rounded=0;exitX=0.75;exitY=0;exitDx=0;exitDy=0;" edge="1" parent="1" source="xZR_K9U9QpyJ1qIMd4OT-55">
          <mxGeometry width="50" height="50" relative="1" as="geometry">
            <mxPoint x="690" y="220" as="sourcePoint" />
            <mxPoint x="740" y="170" as="targetPoint" />
          </mxGeometry>
        </mxCell>
        <mxCell id="xZR_K9U9QpyJ1qIMd4OT-57" value="Cultural involvement programmes" style="rounded=1;whiteSpace=wrap;html=1;" vertex="1" parent="1">
          <mxGeometry x="60" y="490" width="200" height="30" as="geometry" />
        </mxCell>
        <mxCell id="xZR_K9U9QpyJ1qIMd4OT-58" value="" style="endArrow=none;html=1;rounded=0;" edge="1" parent="1" target="xZR_K9U9QpyJ1qIMd4OT-1">
          <mxGeometry width="50" height="50" relative="1" as="geometry">
            <mxPoint x="260" y="300" as="sourcePoint" />
            <mxPoint x="310" y="250" as="targetPoint" />
          </mxGeometry>
        </mxCell>
        <mxCell id="xZR_K9U9QpyJ1qIMd4OT-59" value="" style="endArrow=none;html=1;rounded=0;exitX=1;exitY=0.5;exitDx=0;exitDy=0;entryX=0.187;entryY=0.889;entryDx=0;entryDy=0;entryPerimeter=0;" edge="1" parent="1" source="xZR_K9U9QpyJ1qIMd4OT-57" target="xZR_K9U9QpyJ1qIMd4OT-1">
          <mxGeometry width="50" height="50" relative="1" as="geometry">
            <mxPoint x="260" y="520" as="sourcePoint" />
            <mxPoint x="310" y="470" as="targetPoint" />
          </mxGeometry>
        </mxCell>
        <mxCell id="xZR_K9U9QpyJ1qIMd4OT-60" value="" style="endArrow=none;html=1;rounded=0;exitX=1;exitY=0.25;exitDx=0;exitDy=0;" edge="1" parent="1" source="xZR_K9U9QpyJ1qIMd4OT-49">
          <mxGeometry width="50" height="50" relative="1" as="geometry">
            <mxPoint x="240" y="480" as="sourcePoint" />
            <mxPoint x="290" y="430" as="targetPoint" />
          </mxGeometry>
        </mxCell>
        <mxCell id="xZR_K9U9QpyJ1qIMd4OT-61" value="" style="endArrow=none;html=1;rounded=0;entryX=0.086;entryY=0.256;entryDx=0;entryDy=0;entryPerimeter=0;" edge="1" parent="1" target="xZR_K9U9QpyJ1qIMd4OT-1">
          <mxGeometry width="50" height="50" relative="1" as="geometry">
            <mxPoint x="250" y="390" as="sourcePoint" />
            <mxPoint x="300" y="340" as="targetPoint" />
          </mxGeometry>
        </mxCell>
        <mxCell id="xZR_K9U9QpyJ1qIMd4OT-62" value="" style="endArrow=none;html=1;rounded=0;entryX=0;entryY=0;entryDx=0;entryDy=0;" edge="1" parent="1" target="xZR_K9U9QpyJ1qIMd4OT-1">
          <mxGeometry width="50" height="50" relative="1" as="geometry">
            <mxPoint x="260" y="330" as="sourcePoint" />
            <mxPoint x="310" y="280" as="targetPoint" />
          </mxGeometry>
        </mxCell>
        <mxCell id="xZR_K9U9QpyJ1qIMd4OT-65" value="&lt;font style=&quot;font-size: 18px;&quot;&gt;&lt;b&gt;Resolves&lt;/b&gt;&lt;/font&gt;" style="text;html=1;align=center;verticalAlign=middle;resizable=0;points=[];autosize=1;strokeColor=none;fillColor=none;" vertex="1" parent="1">
          <mxGeometry x="150" y="20" width="100" height="40" as="geometry" />
        </mxCell>
        <mxCell id="xZR_K9U9QpyJ1qIMd4OT-66" value="&lt;font style=&quot;font-size: 18px;&quot;&gt;&lt;b&gt;Challenges&lt;/b&gt;&lt;/font&gt;" style="text;html=1;align=center;verticalAlign=middle;resizable=0;points=[];autosize=1;strokeColor=none;fillColor=none;" vertex="1" parent="1">
          <mxGeometry x="605" y="20" width="120" height="40" as="geometry" />
        </mxCell>
        <mxCell id="WhhWjk8aR7mHZzo-3bN8-1" value="Low social capital (network, trust..)" style="rounded=1;whiteSpace=wrap;html=1;" vertex="1" parent="1">
          <mxGeometry x="400" y="130" width="100" height="40" as="geometry" />
        </mxCell>
        <mxCell id="WhhWjk8aR7mHZzo-3bN8-3" value="High crime rate" style="rounded=1;whiteSpace=wrap;html=1;" vertex="1" parent="1">
          <mxGeometry x="390" y="50" width="100" height="20" as="geometry" />
        </mxCell>
        <mxCell id="WhhWjk8aR7mHZzo-3bN8-4" value="Low income" style="rounded=1;whiteSpace=wrap;html=1;" vertex="1" parent="1">
          <mxGeometry x="340" y="100" width="70" height="20" as="geometry" />
        </mxCell>
        <mxCell id="WhhWjk8aR7mHZzo-3bN8-5" value="Illeteracy" style="rounded=1;whiteSpace=wrap;html=1;" vertex="1" parent="1">
          <mxGeometry x="290" y="70" width="60" height="20" as="geometry" />
        </mxCell>
        <mxCell id="WhhWjk8aR7mHZzo-3bN8-8" value="" style="endArrow=none;html=1;rounded=0;exitX=0.85;exitY=0.025;exitDx=0;exitDy=0;exitPerimeter=0;entryX=0.912;entryY=0.917;entryDx=0;entryDy=0;entryPerimeter=0;" edge="1" parent="1" source="WhhWjk8aR7mHZzo-3bN8-1" target="WhhWjk8aR7mHZzo-3bN8-3">
          <mxGeometry width="50" height="50" relative="1" as="geometry">
            <mxPoint x="450" y="160" as="sourcePoint" />
            <mxPoint x="500" y="110" as="targetPoint" />
          </mxGeometry>
        </mxCell>
        <mxCell id="WhhWjk8aR7mHZzo-3bN8-10" value="" style="endArrow=none;html=1;rounded=0;exitX=0.571;exitY=0;exitDx=0;exitDy=0;exitPerimeter=0;" edge="1" parent="1" source="xZR_K9U9QpyJ1qIMd4OT-1">
          <mxGeometry width="50" height="50" relative="1" as="geometry">
            <mxPoint x="350" y="390" as="sourcePoint" />
            <mxPoint x="410" y="170" as="targetPoint" />
          </mxGeometry>
        </mxCell>
        <mxCell id="WhhWjk8aR7mHZzo-3bN8-11" value="" style="endArrow=none;html=1;rounded=0;exitX=0.5;exitY=0;exitDx=0;exitDy=0;" edge="1" parent="1" source="WhhWjk8aR7mHZzo-3bN8-5">
          <mxGeometry width="50" height="50" relative="1" as="geometry">
            <mxPoint x="350" y="120" as="sourcePoint" />
            <mxPoint x="400" y="70" as="targetPoint" />
          </mxGeometry>
        </mxCell>
        <mxCell id="WhhWjk8aR7mHZzo-3bN8-12" value="" style="endArrow=none;html=1;rounded=0;exitX=0.75;exitY=0;exitDx=0;exitDy=0;" edge="1" parent="1" source="WhhWjk8aR7mHZzo-3bN8-4">
          <mxGeometry width="50" height="50" relative="1" as="geometry">
            <mxPoint x="430" y="120" as="sourcePoint" />
            <mxPoint x="480" y="70" as="targetPoint" />
          </mxGeometry>
        </mxCell>
        <mxCell id="WhhWjk8aR7mHZzo-3bN8-13" value="projects to rehabilitate" style="rounded=1;whiteSpace=wrap;html=1;" vertex="1" parent="1">
          <mxGeometry x="130" y="230" width="120" height="30" as="geometry" />
        </mxCell>
        <mxCell id="WhhWjk8aR7mHZzo-3bN8-14" value="" style="endArrow=none;html=1;rounded=0;entryX=0.329;entryY=0.056;entryDx=0;entryDy=0;entryPerimeter=0;" edge="1" parent="1" target="xZR_K9U9QpyJ1qIMd4OT-1">
          <mxGeometry width="50" height="50" relative="1" as="geometry">
            <mxPoint x="250" y="250" as="sourcePoint" />
            <mxPoint x="300" y="200" as="targetPoint" />
          </mxGeometry>
        </mxCell>
        <mxCell id="WhhWjk8aR7mHZzo-3bN8-17" value="Non Gov&lt;br&gt;Foundation Schools" style="rounded=1;whiteSpace=wrap;html=1;" vertex="1" parent="1">
          <mxGeometry x="-10" y="310" width="120" height="25" as="geometry" />
        </mxCell>
        <mxCell id="WhhWjk8aR7mHZzo-3bN8-18" value="Gov schools enroll" style="rounded=1;whiteSpace=wrap;html=1;" vertex="1" parent="1">
          <mxGeometry x="-10" y="350" width="120" height="20" as="geometry" />
        </mxCell>
        <mxCell id="WhhWjk8aR7mHZzo-3bN8-19" value="" style="endArrow=none;html=1;rounded=0;" edge="1" parent="1">
          <mxGeometry width="50" height="50" relative="1" as="geometry">
            <mxPoint x="110" y="360" as="sourcePoint" />
            <mxPoint x="140" y="340" as="targetPoint" />
          </mxGeometry>
        </mxCell>
        <mxCell id="WhhWjk8aR7mHZzo-3bN8-20" value="" style="endArrow=none;html=1;rounded=0;entryX=0;entryY=0.25;entryDx=0;entryDy=0;" edge="1" parent="1" target="xZR_K9U9QpyJ1qIMd4OT-47">
          <mxGeometry width="50" height="50" relative="1" as="geometry">
            <mxPoint x="110" y="320" as="sourcePoint" />
            <mxPoint x="160" y="270" as="targetPoint" />
          </mxGeometry>
        </mxCell>
        <mxCell id="WhhWjk8aR7mHZzo-3bN8-21" value="Citizenship in 2008" style="rounded=1;whiteSpace=wrap;html=1;" vertex="1" parent="1">
          <mxGeometry x="-10" y="275" width="120" height="20" as="geometry" />
        </mxCell>
        <mxCell id="WhhWjk8aR7mHZzo-3bN8-22" value="" style="endArrow=none;html=1;rounded=0;exitX=1;exitY=0.5;exitDx=0;exitDy=0;entryX=0;entryY=0.5;entryDx=0;entryDy=0;" edge="1" parent="1" source="WhhWjk8aR7mHZzo-3bN8-21" target="xZR_K9U9QpyJ1qIMd4OT-46">
          <mxGeometry width="50" height="50" relative="1" as="geometry">
            <mxPoint x="90" y="330" as="sourcePoint" />
            <mxPoint x="80" y="290" as="targetPoint" />
          </mxGeometry>
        </mxCell>
        <mxCell id="WhhWjk8aR7mHZzo-3bN8-24" value="Access to Gov jobs" style="rounded=1;whiteSpace=wrap;html=1;" vertex="1" parent="1">
          <mxGeometry x="-10" y="380" width="120" height="20" as="geometry" />
        </mxCell>
        <mxCell id="WhhWjk8aR7mHZzo-3bN8-25" value="" style="endArrow=none;html=1;rounded=0;exitX=1;exitY=0.5;exitDx=0;exitDy=0;" edge="1" parent="1" source="WhhWjk8aR7mHZzo-3bN8-24">
          <mxGeometry width="50" height="50" relative="1" as="geometry">
            <mxPoint x="80" y="430" as="sourcePoint" />
            <mxPoint x="130" y="380" as="targetPoint" />
          </mxGeometry>
        </mxCell>
        <mxCell id="WhhWjk8aR7mHZzo-3bN8-29" value="Negative Community" style="rounded=1;whiteSpace=wrap;html=1;" vertex="1" parent="1">
          <mxGeometry x="540" y="680" width="120" height="30" as="geometry" />
        </mxCell>
        <mxCell id="WhhWjk8aR7mHZzo-3bN8-31" value="" style="endArrow=none;html=1;rounded=0;exitX=1;exitY=0.5;exitDx=0;exitDy=0;" edge="1" parent="1" source="WhhWjk8aR7mHZzo-3bN8-29">
          <mxGeometry width="50" height="50" relative="1" as="geometry">
            <mxPoint x="650" y="730" as="sourcePoint" />
            <mxPoint x="700" y="680" as="targetPoint" />
          </mxGeometry>
        </mxCell>
        <mxCell id="WhhWjk8aR7mHZzo-3bN8-34" value="" style="endArrow=none;html=1;rounded=0;exitX=0.5;exitY=0;exitDx=0;exitDy=0;" edge="1" parent="1" source="xZR_K9U9QpyJ1qIMd4OT-1">
          <mxGeometry width="50" height="50" relative="1" as="geometry">
            <mxPoint x="320" y="170" as="sourcePoint" />
            <mxPoint x="370" y="120" as="targetPoint" />
          </mxGeometry>
        </mxCell>
        <mxCell id="WhhWjk8aR7mHZzo-3bN8-35" value="" style="endArrow=none;html=1;rounded=0;exitX=0.461;exitY=0.009;exitDx=0;exitDy=0;exitPerimeter=0;" edge="1" parent="1" source="xZR_K9U9QpyJ1qIMd4OT-1">
          <mxGeometry width="50" height="50" relative="1" as="geometry">
            <mxPoint x="280" y="140" as="sourcePoint" />
            <mxPoint x="330" y="90" as="targetPoint" />
          </mxGeometry>
        </mxCell>
      </root>
    </mxGraphModel>
  </diagram>
</mxfile>
